<svg width="56" height="56" viewBox="0 0 56 56" fill="none" xmlns="http://www.w3.org/2000/svg">
<g clip-path="url(#clip0_21_96)">
<path d="M48 28C48 16.9544 39.0456 8 28 8C16.9544 8 8 16.9542 8 28C8 37.9825 15.3137 46.2567 24.875 47.757V33.7813H19.7969V28H24.875V23.5938C24.875 18.5813 27.8609 15.8125 32.4292 15.8125C34.6175 15.8125 36.9062 16.2031 36.9062 16.2031V21.125H34.3844C31.8997 21.125 31.125 22.6667 31.125 24.2484V28H36.6719L35.7852 33.7813H31.125V47.757C40.6862 46.2567 48 37.9827 48 28Z" fill="#1877F2"/>
<path d="M35.7852 33.7812L36.6719 28H31.125V24.2484C31.125 22.6666 31.8998 21.125 34.3844 21.125H36.9062V16.2031C36.9062 16.2031 34.6175 15.8125 32.4292 15.8125C27.8609 15.8125 24.875 18.5813 24.875 23.5938V28H19.7969V33.7812H24.875V47.757C25.9088 47.919 26.9536 48.0003 28 48C29.0464 48.0003 30.0912 47.9191 31.125 47.757V33.7812H35.7852Z" fill="white"/>
</g>
<rect x="0.5" y="0.5" width="55" height="55" rx="9.5" stroke="#001524"/>
<defs>
<clipPath id="clip0_21_96">
<rect width="40" height="40" fill="white" transform="translate(8 8)"/>
</clipPath>
</defs>
</svg>
